<svg width="40" height="33" viewBox="0 0 40 33" fill="none" xmlns="http://www.w3.org/2000/svg">
<path d="M9.81764 7.09498C9.29378 6.92916 8.65744 7.07969 8.31877 7.58468L5.28078 12.0173C5.28057 12.0177 5.28035 12.018 5.28013 12.0183C5.11471 12.2581 5.04875 12.5526 5.11015 12.8442C5.17108 13.1334 5.34735 13.3746 5.57974 13.5367L5.57966 13.5369L5.58995 13.5437L8.53993 15.4953C8.49803 15.8209 8.47172 16.1588 8.47172 16.5C8.47172 16.8412 8.49803 17.1791 8.53993 17.5047L5.58995 19.4563L5.58989 19.4563L5.58165 19.4619C5.34774 19.6235 5.16998 19.8652 5.10881 20.1556C5.04724 20.448 5.11413 20.7431 5.28081 20.9827C5.2813 20.9834 5.28178 20.9841 5.28227 20.9848L8.32037 25.4177L8.32031 25.4177L8.32527 25.4247C8.66528 25.903 9.29571 26.0519 9.81764 25.8867L9.81767 25.8868L9.82752 25.8834L13.3786 24.6776C14.0577 25.1039 14.7849 25.4657 15.5836 25.7626L16.0798 28.8624L16.0817 28.8741L16.0841 28.8857C16.207 29.4732 16.7761 29.8333 17.3337 29.8333H23.4152C23.9728 29.8333 24.542 29.4732 24.6648 28.8857L24.6672 28.8741L24.6691 28.8624L25.1657 25.7605C25.9484 25.4649 26.6877 25.1043 27.3701 24.6775L30.9214 25.8834L30.9214 25.8836L30.9313 25.8867C31.4532 26.0519 32.0837 25.903 32.4237 25.4247L32.4237 25.4247L32.4286 25.4177L35.4693 20.981L35.4693 20.981L35.4729 20.9756C35.6414 20.7229 35.7016 20.4281 35.6369 20.1414C35.5734 19.8602 35.3996 19.6278 35.1737 19.4665L35.1664 19.4613L35.159 19.4563L32.209 17.5047C32.2509 17.1791 32.2772 16.8412 32.2772 16.5C32.2772 16.1588 32.2509 15.8209 32.209 15.4953L35.159 13.5437L35.1664 13.5387L35.1737 13.5335C35.6381 13.2018 35.8463 12.5541 35.4673 12.0161L32.4322 7.58773C32.4315 7.58671 32.4308 7.58568 32.4302 7.58466C32.0915 7.07968 31.4552 6.92916 30.9313 7.09498L30.9312 7.09483L30.9194 7.09892L27.3693 8.32167C26.6918 7.89586 25.9532 7.52288 25.1652 7.23491L24.6692 4.11971L24.6668 4.10472L24.6635 4.08991C24.5369 3.52014 23.9662 3.16667 23.4152 3.16667H17.3337C16.7827 3.16667 16.212 3.52014 16.0854 4.08991L16.0822 4.10472L16.0798 4.11971L15.584 7.23291C14.7804 7.52195 14.0534 7.8963 13.3794 8.32157L9.82957 7.09892L9.82963 7.09877L9.81764 7.09498ZM5.17081 0.5H35.5781C36.6224 0.5 37.6103 0.850902 38.3272 1.45602C39.0416 2.059 39.422 2.85681 39.422 3.66667V29.3333C39.422 30.1432 39.0416 30.941 38.3272 31.544C37.6103 32.1491 36.6224 32.5 35.5781 32.5H5.17081C4.12653 32.5 3.1386 32.1491 2.42172 31.544C1.70737 30.941 1.3269 30.1432 1.3269 29.3333V3.66667C1.3269 1.98388 2.95331 0.5 5.17081 0.5ZM16.5306 16.5C16.5306 14.8172 18.157 13.3333 20.3745 13.3333C21.4187 13.3333 22.4067 13.6842 23.1236 14.2894C23.8379 14.8923 24.2184 15.6901 24.2184 16.5C24.2184 17.3099 23.8379 18.1077 23.1236 18.7106C22.4067 19.3158 21.4187 19.6667 20.3745 19.6667C19.3302 19.6667 18.3423 19.3158 17.6254 18.7106C16.911 18.1077 16.5306 17.3099 16.5306 16.5Z" fill="#FFF9F9" stroke="url(#paint0_linear_112_224)"/>
<defs>
<linearGradient id="paint0_linear_112_224" x1="20.3745" y1="0" x2="20.3745" y2="33" gradientUnits="userSpaceOnUse">
<stop stop-color="#FFF501"/>
<stop offset="0.328125" stop-color="#F98CEE"/>
<stop offset="0.682292" stop-color="#6B54FA"/>
<stop offset="1" stop-color="#F86030" stop-opacity="0.85"/>
</linearGradient>
</defs>
</svg>
