<svg width="86" height="86" viewBox="0 0 86 86" fill="none" xmlns="http://www.w3.org/2000/svg">
<path d="M9.7524 80.9416H8.6C6.31914 80.9416 4.13169 79.8756 2.51888 77.9782C0.906068 76.0808 0 73.5073 0 70.8239V10.1177C0 7.43432 0.906068 4.86084 2.51888 2.96341C4.13169 1.06597 6.31914 0 8.6 0H77.4C79.6809 0 81.8683 1.06597 83.4811 2.96341C85.0939 4.86084 86 7.43432 86 10.1177V70.8239C86 73.5073 85.0939 76.0808 83.4811 77.9782C81.8683 79.8756 79.6809 80.9416 77.4 80.9416H76.2476C75.4928 82.4796 74.4071 83.7567 73.0998 84.6446C71.7925 85.5325 70.3095 86 68.8 86C67.2905 86 65.8075 85.5325 64.5002 84.6446C63.1929 83.7567 62.1072 82.4796 61.3524 80.9416H24.6476C23.8928 82.4796 22.8071 83.7567 21.4998 84.6446C20.1925 85.5325 18.7095 86 17.2 86C15.6905 86 14.2075 85.5325 12.9002 84.6446C11.5929 83.7567 10.5072 82.4796 9.7524 80.9416ZM8.6 10.1177V70.8239H77.4V10.1177H8.6ZM17.2 40.4708H68.8V60.7062H17.2V40.4708ZM17.2 20.2354H38.7V30.3531H17.2V20.2354ZM34.4 45.5296V50.5885H51.6V45.5296H34.4ZM51.6 30.3531C50.4596 30.3531 49.3659 29.8201 48.5594 28.8714C47.753 27.9227 47.3 26.6359 47.3 25.2942C47.3 23.9526 47.753 22.6658 48.5594 21.7171C49.3659 20.7684 50.4596 20.2354 51.6 20.2354C52.7404 20.2354 53.8342 20.7684 54.6406 21.7171C55.447 22.6658 55.9 23.9526 55.9 25.2942C55.9 26.6359 55.447 27.9227 54.6406 28.8714C53.8342 29.8201 52.7404 30.3531 51.6 30.3531ZM64.5 30.3531C63.3596 30.3531 62.2658 29.8201 61.4594 28.8714C60.653 27.9227 60.2 26.6359 60.2 25.2942C60.2 23.9526 60.653 22.6658 61.4594 21.7171C62.2658 20.7684 63.3596 20.2354 64.5 20.2354C65.6404 20.2354 66.7342 20.7684 67.5406 21.7171C68.347 22.6658 68.8 23.9526 68.8 25.2942C68.8 26.6359 68.347 27.9227 67.5406 28.8714C66.7342 29.8201 65.6404 30.3531 64.5 30.3531Z" fill="#DE901C"/>
</svg>
