<svg width="48" height="48" viewBox="0 0 48 48" fill="none" xmlns="http://www.w3.org/2000/svg">
<path d="M41 6H7C5.6744 6.00159 4.40356 6.52888 3.46622 7.46622C2.52888 8.40356 2.00159 9.6744 2 11V29C2.00159 30.3256 2.52888 31.5964 3.46622 32.5338C4.40356 33.4711 5.6744 33.9984 7 34H20.5V36H11C9.93913 36 8.92172 36.4214 8.17157 37.1716C7.42143 37.9217 7 38.9391 7 40C7 40.5304 7.21071 41.0391 7.58579 41.4142C7.96086 41.7893 8.46957 42 9 42H39C39.5304 42 40.0391 41.7893 40.4142 41.4142C40.7893 41.0391 41 40.5304 41 40C41 38.9391 40.5786 37.9217 39.8284 37.1716C39.0783 36.4214 38.0609 36 37 36H27.5V34H41C42.3256 33.9984 43.5964 33.4711 44.5338 32.5338C45.4711 31.5964 45.9984 30.3256 46 29V11C45.9984 9.6744 45.4711 8.40356 44.5338 7.46622C43.5964 6.52888 42.3256 6.00159 41 6ZM39 40H9C9 39.4696 9.21071 38.9609 9.58579 38.5858C9.96086 38.2107 10.4696 38 11 38H37C37.5304 38 38.0391 38.2107 38.4142 38.5858C38.7893 38.9609 39 39.4696 39 40ZM25.5 36H22.5V34H25.5V36ZM44 29C44 29.7956 43.6839 30.5587 43.1213 31.1213C42.5587 31.6839 41.7956 32 41 32H7C6.20435 32 5.44129 31.6839 4.87868 31.1213C4.31607 30.5587 4 29.7956 4 29V11C4 10.2044 4.31607 9.44129 4.87868 8.87868C5.44129 8.31607 6.20435 8 7 8H41C41.7956 8 42.5587 8.31607 43.1213 8.87868C43.6839 9.44129 44 10.2044 44 11V29Z" fill="url(#paint0_linear_239_7)"/>
<path d="M40 10H8C7.46957 10 6.96086 10.2107 6.58579 10.5858C6.21071 10.9609 6 11.4696 6 12V28C6 28.5304 6.21071 29.0391 6.58579 29.4142C6.96086 29.7893 7.46957 30 8 30H40C40.5304 30 41.0391 29.7893 41.4142 29.4142C41.7893 29.0391 42 28.5304 42 28V12C42 11.4696 41.7893 10.9609 41.4142 10.5858C41.0391 10.2107 40.5304 10 40 10ZM8 28V12H40V28H8Z" fill="url(#paint1_linear_239_7)"/>
<defs>
<linearGradient id="paint0_linear_239_7" x1="24" y1="6" x2="24" y2="42" gradientUnits="userSpaceOnUse">
<stop stop-color="#FFF501"/>
<stop offset="0.328125" stop-color="#F98CEE"/>
<stop offset="0.682292" stop-color="#6B54FA"/>
<stop offset="1" stop-color="#F86030" stop-opacity="0.85"/>
</linearGradient>
<linearGradient id="paint1_linear_239_7" x1="24" y1="10" x2="24" y2="30" gradientUnits="userSpaceOnUse">
<stop stop-color="#FFF501"/>
<stop offset="0.328125" stop-color="#F98CEE"/>
<stop offset="0.682292" stop-color="#6B54FA"/>
<stop offset="1" stop-color="#F86030" stop-opacity="0.85"/>
</linearGradient>
</defs>
</svg>
