<svg width="39" height="32" viewBox="0 0 39 32" fill="none" xmlns="http://www.w3.org/2000/svg">
<path d="M36.1636 18.5516V8.7034C36.1657 7.93641 35.9897 7.17665 35.6459 6.46789C35.302 5.75912 34.797 5.11535 34.16 4.57368C30.0202 0.902156 22.3411 3.60373 22.4597 8.7391V26.1982C22.2782 32.3154 11.7368 32.3332 11.5483 26.1982V18.0696C14.1541 17.8629 16.5747 16.832 18.3332 15.18C20.0917 13.5279 21.0608 11.3745 21.0496 9.14374V3.13363C21.0477 2.49076 20.7468 1.87475 20.2129 1.42073C19.6789 0.966708 18.9555 0.711735 18.2013 0.711737H16.2955C16.3288 0.553917 16.2872 0.391276 16.1798 0.259594C16.0725 0.127911 15.9082 0.0379732 15.723 0.00956567C15.5379 -0.0188419 15.3471 0.0166078 15.1926 0.108116C15.0381 0.199624 14.9326 0.339695 14.8992 0.497515V2.11608C14.9326 2.2739 15.0381 2.41397 15.1926 2.50548C15.3471 2.59699 15.5379 2.63244 15.723 2.60403C15.9082 2.57562 16.0725 2.48568 16.1798 2.354C16.2872 2.22232 16.3288 2.05968 16.2955 1.90186C17.5171 1.93161 19.5975 1.56862 19.6533 3.13363V9.13779C19.6826 11.1362 18.7972 13.0656 17.1848 14.5166C15.5725 15.9675 13.3603 16.8258 11.0178 16.9093C9.85064 16.9234 8.69174 16.7407 7.60778 16.3716C6.52383 16.0024 5.53623 15.4542 4.70182 14.7584C3.86741 14.0627 3.20267 13.2331 2.74587 12.3175C2.28907 11.4019 2.04922 10.4183 2.04013 9.42342V3.13363C2.10296 1.57457 4.13445 1.94351 5.39802 1.90186C5.38152 1.98 5.38324 2.06015 5.40308 2.13773C5.42291 2.21531 5.46048 2.2888 5.51364 2.354C5.5668 2.4192 5.6345 2.47484 5.71288 2.51774C5.79126 2.56064 5.87879 2.58996 5.97047 2.60403C6.06215 2.61809 6.15618 2.61663 6.24719 2.59972C6.3382 2.58281 6.42442 2.55079 6.50091 2.50548C6.5774 2.46017 6.64268 2.40246 6.69301 2.33565C6.74334 2.26883 6.77773 2.19422 6.79423 2.11608V0.497515C6.77773 0.419371 6.74334 0.344762 6.69301 0.277949C6.64268 0.211136 6.5774 0.153426 6.50091 0.108116C6.42442 0.0628058 6.3382 0.0307817 6.24719 0.0138724C6.15618 -0.00303691 6.06215 -0.00450033 5.97047 0.00956567C5.87879 0.0236317 5.79126 0.0529518 5.71288 0.0958517C5.6345 0.138752 5.5668 0.194391 5.51364 0.259594C5.46048 0.324796 5.42291 0.398285 5.40308 0.475864C5.38324 0.553443 5.38152 0.633592 5.39802 0.711737H3.49219C2.73799 0.711735 2.01458 0.966708 1.48063 1.42073C0.946671 1.87475 0.645769 2.49076 0.643921 3.13363V9.42342C0.660286 11.6203 1.64854 13.7311 3.41121 15.334C5.17389 16.9369 7.58119 17.9138 10.1521 18.0696V26.1982C10.4383 33.9339 23.5697 33.9339 23.8559 26.1982V8.7034C23.7093 4.66294 29.9365 2.48502 33.1687 5.41866C33.6773 5.84854 34.0805 6.3603 34.3549 6.92421C34.6294 7.48811 34.7696 8.0929 34.7673 8.7034V18.5516C30.9487 19.2598 31.5212 24.1214 35.4655 24.1452C39.4098 24.169 39.9613 19.2598 36.1636 18.5516Z" fill="url(#paint0_linear_112_218)"/>
<defs>
<linearGradient id="paint0_linear_112_218" x1="19.6903" y1="0" x2="19.6903" y2="32" gradientUnits="userSpaceOnUse">
<stop stop-color="#FFF501"/>
<stop offset="0.328125" stop-color="#F98CEE"/>
<stop offset="0.682292" stop-color="#6B54FA"/>
<stop offset="1" stop-color="#F86030" stop-opacity="0.85"/>
</linearGradient>
</defs>
</svg>
