<svg width="92" height="83" viewBox="0 0 92 83" fill="none" xmlns="http://www.w3.org/2000/svg">
<path d="M71.994 0.337997C65.737 -0.218003 59.752 1.803 55.147 6.02C50.605 10.179 48 16.095 48 22.25V43.25H16V26.25H26.859C27.303 26.25 27.725 26.053 28.01 25.712C28.295 25.371 28.414 24.92 28.335 24.483L24.357 2.483C24.228 1.769 23.607 1.25 22.881 1.25H5.97702C5.25102 1.25 4.63002 1.769 4.50102 2.483L0.524023 24.483C0.445023 24.92 0.564022 25.37 0.849022 25.712C1.13402 26.053 1.55602 26.25 2.00002 26.25H13V43.25H2.50002C1.67102 43.25 1.00002 43.922 1.00002 44.75V80.75C1.00002 81.578 1.67102 82.25 2.50002 82.25H14.5C15.329 82.25 16 81.578 16 80.75V63.25H48V80.75C48 81.578 48.672 82.25 49.5 82.25H61.5C62.328 82.25 63 81.578 63 80.75V63.25H77V80.75C77 81.578 77.672 82.25 78.5 82.25H90.5C91.328 82.25 92 81.578 92 80.75V22.713C92 11.156 83.212 1.328 71.994 0.337997ZM3.79502 23.25L7.23002 4.25H21.628L25.064 23.25H3.79502ZM60 79.25H51V61.75C51 60.922 50.328 60.25 49.5 60.25H14.5C13.671 60.25 13 60.922 13 61.75V79.25H4.00002V46.25H60V79.25ZM89 79.25H80V61.75C80 60.922 79.328 60.25 78.5 60.25H63V44.75C63 43.922 62.328 43.25 61.5 43.25H51V22.25C51 16.934 53.25 11.825 57.173 8.233C61.151 4.591 66.321 2.85 71.731 3.327C81.414 4.181 89 12.696 89 22.713V79.25Z" fill="url(#paint0_linear_246_33)"/>
<defs>
<linearGradient id="paint0_linear_246_33" x1="46.2501" y1="0.247543" x2="46.2501" y2="82.25" gradientUnits="userSpaceOnUse">
<stop stop-color="#FFF501"/>
<stop offset="0.328125" stop-color="#F98CEE"/>
<stop offset="0.682292" stop-color="#6B54FA"/>
<stop offset="1" stop-color="#F86030" stop-opacity="0.85"/>
</linearGradient>
</defs>
</svg>
