<svg width="35" height="33" viewBox="0 0 35 33" fill="none" xmlns="http://www.w3.org/2000/svg">
<path d="M30.7651 19.4869L30.7579 19.481L30.7505 19.4754L28.1847 17.5235C28.2227 17.1917 28.2466 16.8474 28.2466 16.5C28.2466 16.1526 28.2227 15.8083 28.1847 15.4765L30.7505 13.5246L30.7579 13.519L30.7651 13.5131C31.1849 13.1683 31.3369 12.5492 31.0266 12.0427L28.3852 7.61119C28.0881 7.1019 27.4906 6.91277 26.9712 7.10182L26.9711 7.10164L26.9581 7.1068L23.9286 8.30662C23.3547 7.8965 22.73 7.53539 22.0633 7.25308L21.6308 4.12975L21.629 4.11656L21.6264 4.10349C21.5233 3.56988 21.0299 3.16667 20.4744 3.16667H15.1855C14.63 3.16667 14.1366 3.56987 14.0335 4.10349L14.031 4.11656L14.0291 4.12975L13.5969 7.25092C12.9171 7.53447 12.3012 7.89703 11.731 8.30647L8.70184 7.1068L8.70192 7.10662L8.68874 7.10182C8.1693 6.91276 7.57174 7.10193 7.27464 7.61131L4.63255 12.044C4.63238 12.0443 4.63221 12.0446 4.63205 12.0449C4.49047 12.2808 4.43895 12.5598 4.48867 12.8312C4.53841 13.1028 4.68542 13.3451 4.89931 13.5167L4.8992 13.5168L4.90945 13.5246L7.47522 15.4765C7.43724 15.8083 7.41329 16.1526 7.41329 16.5C7.41329 16.8474 7.43724 17.1917 7.47522 17.5235L4.90945 19.4754L4.90939 19.4753L4.90119 19.4818C4.68568 19.653 4.53743 19.896 4.4875 20.1686C4.43767 20.4406 4.48985 20.7201 4.63256 20.956C4.63298 20.9567 4.6334 20.9574 4.63382 20.9581L7.27602 25.391L7.27596 25.391L7.28021 25.3979C7.58001 25.8829 8.17322 26.0675 8.68875 25.8798L8.68879 25.88L8.6996 25.8758L11.7302 24.6924C12.3055 25.103 12.9215 25.4539 13.5964 25.7442L14.0292 28.8523L14.0306 28.8626L14.0325 28.8728C14.1323 29.4221 14.6227 29.8333 15.1855 29.8333H20.4744C21.0372 29.8333 21.5276 29.4221 21.6274 28.8728L21.6293 28.8626L21.6307 28.8523L22.0638 25.742C22.7252 25.4532 23.3506 25.1035 23.9294 24.6923L26.9603 25.8758L26.9603 25.8759L26.9712 25.8798C27.4867 26.0675 28.0799 25.8829 28.3797 25.3979L28.3798 25.3979L28.3839 25.391L31.0283 20.9543L31.0284 20.9543L31.0314 20.949C31.3307 20.4327 31.1898 19.8358 30.7651 19.4869ZM4.60773 0.5H31.0522C31.9262 0.5 32.7616 0.837146 33.3752 1.43273C33.9884 2.02783 34.33 2.83171 34.33 3.66667V29.3333C34.33 30.1683 33.9884 30.9722 33.3752 31.5673C32.7616 32.1629 31.9262 32.5 31.0522 32.5H4.60773C3.73368 32.5 2.89831 32.1629 2.28468 31.5673C1.67155 30.9722 1.32996 30.1683 1.32996 29.3333V3.66667C1.32996 1.92177 2.77303 0.5 4.60773 0.5ZM14.5522 16.5C14.5522 14.7551 15.9953 13.3333 17.83 13.3333C18.704 13.3333 19.5394 13.6705 20.153 14.2661C20.7661 14.8612 21.1077 15.665 21.1077 16.5C21.1077 17.335 20.7661 18.1388 20.153 18.7339C19.5394 19.3295 18.704 19.6667 17.83 19.6667C16.9559 19.6667 16.1205 19.3295 15.5069 18.7339C14.8938 18.1388 14.5522 17.335 14.5522 16.5Z" fill="url(#paint0_linear_112_339)" stroke="url(#paint1_linear_112_339)"/>
<defs>
<linearGradient id="paint0_linear_112_339" x1="17.83" y1="0" x2="17.83" y2="33" gradientUnits="userSpaceOnUse">
<stop stop-color="#FFF501"/>
<stop offset="0.328125" stop-color="#F98CEE"/>
<stop offset="0.682292" stop-color="#6B54FA"/>
<stop offset="1" stop-color="#F86030" stop-opacity="0.85"/>
</linearGradient>
<linearGradient id="paint1_linear_112_339" x1="17.83" y1="0" x2="17.83" y2="33" gradientUnits="userSpaceOnUse">
<stop stop-color="#FFF501"/>
<stop offset="0.328125" stop-color="#F98CEE"/>
<stop offset="0.682292" stop-color="#6B54FA"/>
<stop offset="1" stop-color="#F86030" stop-opacity="0.85"/>
</linearGradient>
</defs>
</svg>
