<svg width="43" height="36" viewBox="0 0 43 36" fill="none" xmlns="http://www.w3.org/2000/svg">
<path d="M6.65898 1.71174H5.48148C4.5106 1.71173 3.55384 2.03938 2.82611 2.65969C2.09358 3.28407 1.6429 4.16796 1.64014 5.13076H1.64014V5.13363V11.4234H1.64011L1.64016 11.4308C1.65875 13.9313 2.78178 16.2998 4.72702 18.073C6.44736 19.6412 8.70369 20.6498 11.1252 20.9761V28.1982V28.2166L11.1259 28.235C11.2089 30.4833 12.2374 32.2068 13.7365 33.3458C15.2119 34.4667 17.1078 35 18.9604 35C20.8131 35 22.709 34.4667 24.1843 33.3458C25.6835 32.2068 26.712 30.4833 26.795 28.235L26.7957 28.2166V28.1982V10.7034V10.6853L26.795 10.6672C26.7434 9.24131 27.8135 7.9864 29.5091 7.3889C31.1922 6.79578 33.1383 6.99875 34.4128 8.15833L34.4258 8.1702L34.4393 8.18161C34.8471 8.52711 35.1602 8.92973 35.3695 9.36096C35.5786 9.79144 35.6822 10.246 35.6805 10.6998V10.7034V19.7897C33.8326 20.463 32.9341 22.0928 33.132 23.7254C33.3549 25.5641 34.9331 27.1304 37.3709 27.1452C39.8212 27.16 41.3955 25.5845 41.6144 23.7408C41.8077 22.1121 40.9173 20.4692 39.0734 19.7914L39.0733 10.7062C39.0733 10.7057 39.0734 10.7052 39.0734 10.7047V10.7034H38.0734M6.65898 1.71174L36.0747 6.57368C36.7101 7.11535 37.2139 7.75912 37.5569 8.46789M6.65898 1.71174C6.67919 1.68329 6.70027 1.65559 6.72218 1.62864C6.8616 1.45722 7.03137 1.3203 7.21576 1.21913C7.40007 1.11801 7.5993 1.05232 7.80171 1.02119C8.00415 0.990051 8.21125 0.993227 8.41287 1.03078C8.61445 1.06832 8.81199 1.14053 8.99344 1.24827L8.48569 2.10338L8.99344 1.24828C9.17499 1.35608 9.34052 1.49964 9.47395 1.67721C9.60779 1.85532 9.70601 2.06354 9.75401 2.29138L9.77549 2.39333V2.49752V4.11608V4.22026L9.75401 4.32221C9.70601 4.55006 9.60779 4.75827 9.47395 4.93638C9.34052 5.11395 9.17499 5.25751 8.99344 5.36532L8.48288 4.50548L8.99344 5.36532C8.81199 5.47306 8.61445 5.54527 8.41287 5.58282L8.22977 4.59972L6.65898 1.71174ZM38.0734 10.7034C38.0755 9.93641 37.9 9.17665 37.5569 8.46789M38.0734 10.7034V20.5516V10.7034ZM37.5569 8.46789L38.4571 8.03225C38.0515 7.19436 37.4621 6.44412 36.7313 5.81944M37.5569 8.46789L36.7313 5.81944M36.7313 5.81944C34.3362 3.69592 30.988 3.46059 28.311 4.41149C26.4923 5.0575 24.8418 6.31141 23.9961 8.03713L23.9961 5.13363L23.9961 5.13076C23.9934 4.16796 23.5427 3.28407 22.8102 2.65968C22.0824 2.03938 21.1257 1.71173 20.1548 1.71174H18.9773C18.9571 1.68339 18.9361 1.65568 18.9141 1.62864C18.6343 1.28458 18.2375 1.08317 17.8346 1.02119C17.4314 0.959174 17.0052 1.03308 16.6428 1.24827C16.2779 1.46498 15.9799 1.8277 15.8823 2.29138L15.8608 2.39333V2.49752V4.11608V4.22026L15.8823 4.32221C15.9799 4.78589 16.2779 5.14862 16.6428 5.36532C17.0052 5.58052 17.4314 5.65442 17.8346 5.59241C18.2375 5.53043 18.6343 5.32901 18.9141 4.98495C18.9382 4.95531 18.9612 4.92485 18.9831 4.89364C19.0943 4.89081 19.2013 4.88811 19.298 4.88669C19.6537 4.88146 19.9572 4.88952 20.2064 4.92944C20.4646 4.97079 20.5613 5.03116 20.5836 5.04995C20.5843 5.05056 20.5849 5.05107 20.5853 5.05148C20.5873 5.05583 20.5995 5.08513 20.6033 5.15515V11.1378V11.1451L20.6034 11.1524C20.628 12.8365 19.8856 14.4979 18.471 15.7741C17.0542 17.0522 15.0823 17.8313 12.9649 17.9095C11.9163 17.9209 10.8779 17.7555 9.91012 17.4252C8.93873 17.0936 8.06273 16.6041 7.32949 15.9912C6.59651 15.3785 6.0227 14.6565 5.63222 13.872C5.24279 13.0895 5.04125 12.2563 5.03295 11.4187V5.15785C5.03746 5.08434 5.05069 5.05484 5.05206 5.05184C5.05227 5.05139 5.04974 5.05415 5.05233 5.05196C5.07114 5.03601 5.16242 4.97696 5.41709 4.93608C5.66364 4.89651 5.96512 4.88832 6.32445 4.89258C6.41622 4.89367 6.51619 4.89577 6.62019 4.89794C6.63232 4.8982 6.64451 4.89845 6.65675 4.89871C6.67763 4.92826 6.69947 4.95702 6.72219 4.98495C6.8616 5.15637 7.03136 5.29329 7.21576 5.39446C7.40007 5.49558 7.5993 5.56127 7.80171 5.59241C8.00415 5.62354 8.21125 5.62037 8.41286 5.58282L36.7313 5.81944ZM20.972 17.908C22.0661 16.8776 22.8927 15.6602 23.4029 14.3398V28.1826C23.3634 29.384 22.8331 30.2518 22.0495 30.8436C21.2381 31.4565 20.1227 31.7918 18.9622 31.7928C17.8018 31.7937 16.6864 31.4603 15.8747 30.8482C15.0911 30.2572 14.559 29.3886 14.518 28.182V20.9605C16.9757 20.5892 19.2512 19.5285 20.972 17.908Z" fill="url(#paint0_linear_112_337)" stroke="url(#paint1_linear_112_337)" stroke-width="2"/>
<defs>
<linearGradient id="paint0_linear_112_337" x1="21.6401" y1="2" x2="21.6401" y2="34" gradientUnits="userSpaceOnUse">
<stop stop-color="#FFF501"/>
<stop offset="0.328125" stop-color="#F98CEE"/>
<stop offset="0.682292" stop-color="#6B54FA"/>
<stop offset="1" stop-color="#F86030" stop-opacity="0.85"/>
</linearGradient>
<linearGradient id="paint1_linear_112_337" x1="21.6401" y1="2" x2="21.6401" y2="34" gradientUnits="userSpaceOnUse">
<stop stop-color="#FFF501"/>
<stop offset="0.328125" stop-color="#F98CEE"/>
<stop offset="0.682292" stop-color="#6B54FA"/>
<stop offset="1" stop-color="#F86030" stop-opacity="0.85"/>
</linearGradient>
</defs>
</svg>
