<svg width="100" height="91" viewBox="0 0 100 91" fill="none" xmlns="http://www.w3.org/2000/svg">
<path d="M75.4939 4.09045C69.2369 3.53445 63.2519 5.55545 58.6469 9.77245C54.1049 13.9315 51.4999 19.8475 51.4999 26.0025V47.0025H19.4999V30.0025H30.3589C30.8029 30.0025 31.2249 29.8055 31.5099 29.4645C31.7949 29.1235 31.9139 28.6725 31.8349 28.2355L27.8569 6.23545C27.7279 5.52145 27.1069 5.00245 26.3809 5.00245H9.4769C8.7509 5.00245 8.1299 5.52145 8.0009 6.23545L4.0239 28.2355C3.9449 28.6725 4.0639 29.1225 4.3489 29.4645C4.6339 29.8055 5.0559 30.0025 5.4999 30.0025H16.4999V47.0025H5.9999C5.1709 47.0025 4.4999 47.6745 4.4999 48.5025V84.5025C4.4999 85.3305 5.1709 86.0025 5.9999 86.0025H17.9999C18.8289 86.0025 19.4999 85.3305 19.4999 84.5025V67.0025H51.4999V84.5025C51.4999 85.3305 52.1719 86.0025 52.9999 86.0025H64.9999C65.8279 86.0025 66.4999 85.3305 66.4999 84.5025V67.0025H80.4999V84.5025C80.4999 85.3305 81.1719 86.0025 81.9999 86.0025H93.9999C94.8279 86.0025 95.4999 85.3305 95.4999 84.5025V26.4655C95.4999 14.9085 86.7119 5.08045 75.4939 4.09045ZM7.2949 27.0025L10.7299 8.00245H25.1279L28.5639 27.0025H7.2949ZM63.4999 83.0025H54.4999V65.5025C54.4999 64.6745 53.8279 64.0025 52.9999 64.0025H17.9999C17.1709 64.0025 16.4999 64.6745 16.4999 65.5025V83.0025H7.4999V50.0025H63.4999V83.0025ZM92.4999 83.0025H83.4999V65.5025C83.4999 64.6745 82.8279 64.0025 81.9999 64.0025H66.4999V48.5025C66.4999 47.6745 65.8279 47.0025 64.9999 47.0025H54.4999V26.0025C54.4999 20.6865 56.7499 15.5775 60.6729 11.9855C64.6509 8.34345 69.8209 6.60245 75.2309 7.07945C84.9139 7.93345 92.4999 16.4485 92.4999 26.4655V83.0025Z" fill="url(#paint0_linear_246_34)" stroke="url(#paint1_linear_246_34)" stroke-width="8"/>
<defs>
<linearGradient id="paint0_linear_246_34" x1="49.75" y1="4" x2="49.75" y2="86.0025" gradientUnits="userSpaceOnUse">
<stop stop-color="#FFF501"/>
<stop offset="0.328125" stop-color="#F98CEE"/>
<stop offset="0.682292" stop-color="#6B54FA"/>
<stop offset="1" stop-color="#F86030" stop-opacity="0.85"/>
</linearGradient>
<linearGradient id="paint1_linear_246_34" x1="49.75" y1="4" x2="49.75" y2="86.0025" gradientUnits="userSpaceOnUse">
<stop stop-color="#FFF501"/>
<stop offset="0.328125" stop-color="#F98CEE"/>
<stop offset="0.682292" stop-color="#6B54FA"/>
<stop offset="1" stop-color="#F86030" stop-opacity="0.85"/>
</linearGradient>
</defs>
</svg>
